<svg xmlns="http://www.w3.org/2000/svg" version="1.1" xmlns:xlink="http://www.w3.org/1999/xlink" xmlns:svgjs="http://svgjs.dev/svgjs" width="1500" height="1165" viewBox="0 0 1500 1165"><g transform="matrix(1,0,0,1,1.0794995415608355,0.47165991902829774)"><svg viewBox="0 0 318 247" data-background-color="#091f5b" preserveAspectRatio="xMidYMid meet" height="1165" width="1500" xmlns="http://www.w3.org/2000/svg" xmlns:xlink="http://www.w3.org/1999/xlink"><g id="tight-bounds" transform="matrix(1,0,0,1,-0.22885390281089713,-0.09999999999999432)"><svg viewBox="0 0 318.4577078056218 247.2" height="247.2" width="318.4577078056218"><g><svg viewBox="0 0 397.49759999999986 308.5540224385969" height="247.2" width="318.4577078056218"><g><rect width="397.49759999999986" height="9.450602180135384" x="0" y="169.56772653948715" fill="#fff9ef" opacity="1" stroke-width="0" stroke="transparent" fill-opacity="1" class="rect-qz-0" data-fill-palette-color="secondary" rx="1%" id="qz-0" data-palette-color="#fff9ef"></rect></g><g transform="matrix(1,0,0,1,0.9887999999999693,203.75812500269944)"><svg viewBox="0 0 395.5199999999999 104.79589743589742" height="104.79589743589742" width="395.5199999999999"><g id="textblocktransform"><svg viewBox="0 0 395.5199999999999 104.79589743589742" height="104.79589743589742" width="395.5199999999999" id="textblock"><g><svg viewBox="0 0 395.5199999999999 104.79589743589742" height="104.79589743589742" width="395.5199999999999"><g transform="matrix(1,0,0,1,0,0)"><svg width="395.5199999999999" viewBox="1.5 -36.75 175.48 46.5" height="104.79589743589742" data-palette-color="#fff9ef"><path d="M13.75-36.75L13.75-36.75Q15.05-36.75 16.1-36.43 17.15-36.1 17.8-35.55L17.8-35.55 16.85-32.65Q16.3-33.05 15.65-33.25 15-33.45 14.15-33.45L14.15-33.45Q12.05-33.45 10.9-32.33 9.75-31.2 9.75-28.85L9.75-28.85 9.75-25 9.75-23.8 9.75 0 6.15 0 6.15-29.2Q6.15-31.45 7-33.15 7.85-34.85 9.55-35.8 11.25-36.75 13.75-36.75ZM1.5-25L17.65-25 17.65-21.9 1.5-21.9 1.5-25ZM36.3-9.15L36.3-16.25Q36.3-19.1 34.8-20.73 33.3-22.35 30.55-22.35L30.55-22.35Q28.05-22.35 26.3-21.18 24.55-20 23.7-17.45L23.7-17.45 20.75-19.25Q21.75-22.1 24.32-23.8 26.9-25.5 30.65-25.5L30.65-25.5Q33.3-25.5 35.37-24.58 37.45-23.65 38.67-21.75 39.9-19.85 39.9-16.95L39.9-16.95 39.9-4.75Q39.9-2.7 41.8-2.7L41.8-2.7Q42.2-2.7 42.7-2.78 43.2-2.85 43.55-3L43.55-3 43.35-0.15Q42.95 0.05 42.32 0.2 41.7 0.35 40.9 0.35L40.9 0.35Q39.6 0.35 38.52-0.18 37.45-0.7 36.82-1.83 36.2-2.95 36.2-4.65L36.2-4.65 36.2-5.35 37.1-5.25Q36.55-3.3 35.17-2.02 33.8-0.75 32.02-0.13 30.25 0.5 28.45 0.5L28.45 0.5Q25.2 0.5 22.9-1.18 20.6-2.85 20.6-6.2L20.6-6.2Q20.6-8.9 22.32-10.73 24.05-12.55 27.4-13.25L27.4-13.25 36.95-15.25 36.95-12.25 29.1-10.55Q26.65-10.05 25.45-9.1 24.25-8.15 24.25-6.4L24.25-6.4Q24.25-4.7 25.47-3.68 26.7-2.65 29-2.65L29-2.65Q30.35-2.65 31.65-3.03 32.95-3.4 34-4.2 35.05-5 35.67-6.23 36.3-7.45 36.3-9.15L36.3-9.15ZM58.2-25.5L58.2-25.5Q60.7-25.5 62.62-24.68 64.55-23.85 65.9-22.38 67.25-20.9 68.05-18.85L68.05-18.85 64.65-17.2Q63.95-19.7 62.3-21.03 60.65-22.35 58.09-22.35L58.09-22.35Q55.7-22.35 53.92-21.18 52.15-20 51.2-17.8 50.25-15.6 50.25-12.5L50.25-12.5Q50.25-9.45 51.22-7.23 52.2-5 53.97-3.83 55.75-2.65 58.15-2.65L58.15-2.65Q60.05-2.65 61.45-3.28 62.84-3.9 63.75-5.1 64.65-6.3 65-8L65-8 68.3-6.85Q67.55-4.55 66.15-2.9 64.75-1.25 62.72-0.38 60.7 0.5 58.15 0.5L58.15 0.5Q54.8 0.5 52.2-1.05 49.59-2.6 48.12-5.53 46.65-8.45 46.65-12.5L46.65-12.5Q46.65-16.55 48.15-19.48 49.65-22.4 52.25-23.95 54.84-25.5 58.2-25.5ZM75.29-25L78.89-25 78.89 0 75.29 0 75.29-25ZM77.34-29.8L77.34-29.8Q75.99-29.8 75.17-30.63 74.34-31.45 74.34-32.8L74.34-32.8Q74.34-34.15 75.17-34.98 75.99-35.8 77.34-35.8L77.34-35.8Q78.69-35.8 79.52-34.98 80.34-34.15 80.34-32.8L80.34-32.8Q80.34-31.45 79.52-30.63 78.69-29.8 77.34-29.8ZM87.89-36.5L91.49-36.5 91.49-6.25Q91.49-4.45 92.04-3.55 92.59-2.65 94.14-2.65L94.14-2.65Q94.99-2.65 95.54-2.8 96.09-2.95 96.99-3.35L96.99-3.35 96.49-0.2Q95.84 0.15 94.92 0.33 93.99 0.5 93.14 0.5L93.14 0.5Q90.14 0.5 89.02-1.35 87.89-3.2 87.89-6.1L87.89-6.1 87.89-36.5ZM102.04-25L105.64-25 105.64 0 102.04 0 102.04-25ZM104.09-29.8L104.09-29.8Q102.74-29.8 101.91-30.63 101.09-31.45 101.09-32.8L101.09-32.8Q101.09-34.15 101.91-34.98 102.74-35.8 104.09-35.8L104.09-35.8Q105.44-35.8 106.26-34.98 107.09-34.15 107.09-32.8L107.09-32.8Q107.09-31.45 106.26-30.63 105.44-29.8 104.09-29.8ZM116.39-31.05L119.99-32.05 119.99-6.85Q119.99-4.85 120.99-3.85 121.99-2.85 123.64-2.85L123.64-2.85Q125.04-2.85 126.01-3.35 126.99-3.85 127.79-4.7L127.79-4.7 128.99-1.7Q127.89-0.65 126.44-0.08 124.99 0.5 123.14 0.5L123.14 0.5Q120.34 0.5 118.36-1.05 116.39-2.6 116.39-6.2L116.39-6.2 116.39-31.05ZM111.69-25L128.59-25 128.59-21.9 111.69-21.9 111.69-25ZM135.08-33L138.68-33 138.68 0 135.08 0 135.08-33ZM170.18 9.75L170.18 9.75Q167.78 9.75 165.66 8.78 163.53 7.8 162.23 5.53 160.93 3.25 160.93-0.65L160.93-0.65Q160.93-1.05 160.96-1.5 160.98-1.95 161.03-2.4L161.03-2.4 164.13-2.35Q164.08-1.9 164.03-1.53 163.98-1.15 163.98-0.75L163.98-0.75Q163.98 2.1 164.86 3.58 165.73 5.05 167.18 5.58 168.63 6.1 170.28 6.1L170.28 6.1Q171.93 6.1 173.41 5.63 174.88 5.15 175.73 4.25L175.73 4.25 176.88 7.6Q175.78 8.6 173.83 9.18 171.88 9.75 170.18 9.75ZM162.18-33.5L162.18-33.5Q166.73-33.5 170.06-31.43 173.38-29.35 175.18-25.55 176.98-21.75 176.98-16.5L176.98-16.5Q176.98-11.25 175.18-7.45 173.38-3.65 170.06-1.58 166.73 0.5 162.18 0.5L162.18 0.5Q157.63 0.5 154.31-1.58 150.98-3.65 149.18-7.45 147.38-11.25 147.38-16.5L147.38-16.5Q147.38-21.75 149.18-25.55 150.98-29.35 154.31-31.43 157.63-33.5 162.18-33.5ZM162.18-30.15L162.18-30.15Q158.78-30.15 156.31-28.5 153.83-26.85 152.48-23.8 151.13-20.75 151.13-16.5L151.13-16.5Q151.13-12.25 152.48-9.2 153.83-6.15 156.31-4.5 158.78-2.85 162.18-2.85L162.18-2.85Q165.58-2.85 168.06-4.5 170.53-6.15 171.88-9.2 173.23-12.25 173.23-16.5L173.23-16.5Q173.23-20.75 171.88-23.8 170.53-26.85 168.06-28.5 165.58-30.15 162.18-30.15Z" opacity="1" transform="matrix(1,0,0,1,0,0)" fill="#fff9ef" class="wordmark-text-0" data-fill-palette-color="primary" id="text-0"></path></svg></g></svg></g></svg></g></svg></g><g transform="matrix(1,0,0,1,142.4733060076307,0)"><svg viewBox="0 0 112.55098798473844 144.82793025641024" height="144.82793025641024" width="112.55098798473844"><g><svg xmlns="http://www.w3.org/2000/svg" xmlns:xlink="http://www.w3.org/1999/xlink" version="1.1" x="8" y="0" viewBox="0 0 66.666 100" enable-background="new 0 0 66.667 100" xml:space="preserve" width="96.55098798473844" height="144.82793025641024" class="icon-icon-0" data-fill-palette-color="accent" id="icon-0"><path d="M0 0v100h26.667V80H40v20h26.666V0H0zM20 63.333H6.667v-20H20V63.333zM20 30H6.667V10H20V30zM40 63.333H26.667v-20H40V63.333zM40 30H26.667V10H40V30zM60 63.333H46.667v-20H60V63.333zM60 30H46.667V10H60V30z" fill="#edf0f5" data-fill-palette-color="accent"></path></svg></g></svg></g><g><rect width="42.12793771956791" height="9.450602180135384" y="134.37732807627486" x="255.02429399236914" fill="#fff9ef" data-fill-palette-color="secondary"></rect><rect width="42.12793771956791" height="9.450602180135384" y="134.37732807627486" x="100.3453682880628" fill="#fff9ef" data-fill-palette-color="secondary"></rect></g></svg></g><defs></defs></svg><rect width="318.4577078056218" height="247.2" fill="none" stroke="none" visibility="hidden"></rect></g></svg></g></svg>